<mxfile host="app.diagrams.net" modified="2024-03-17T21:22:43.807Z" agent="Mozilla/5.0 (X11; Ubuntu; Linux x86_64; rv:123.0) Gecko/20100101 Firefox/123.0" etag="EK9AKLrjAraoP6qKeAkv" version="24.0.2" type="device">
  <diagram name="Page-1" id="6R0yMu48g1oSd59GtvjM">
    <mxGraphModel dx="1362" dy="795" grid="1" gridSize="10" guides="1" tooltips="1" connect="1" arrows="1" fold="1" page="1" pageScale="1" pageWidth="850" pageHeight="1100" math="0" shadow="0">
      <root>
        <mxCell id="0" />
        <mxCell id="1" parent="0" />
        <mxCell id="DDUSek9ynVhU5SFkkY_l-11" style="edgeStyle=orthogonalEdgeStyle;rounded=0;orthogonalLoop=1;jettySize=auto;html=1;exitX=1;exitY=0.5;exitDx=0;exitDy=0;exitPerimeter=0;entryX=0;entryY=0.5;entryDx=0;entryDy=0;" parent="1" source="DDUSek9ynVhU5SFkkY_l-1" target="h4ItEphQto2vHwUUPfga-1" edge="1">
          <mxGeometry relative="1" as="geometry">
            <mxPoint x="340" y="150" as="targetPoint" />
          </mxGeometry>
        </mxCell>
        <mxCell id="DDUSek9ynVhU5SFkkY_l-1" value="&lt;div&gt;Train&lt;/div&gt;&lt;div&gt;Text&lt;/div&gt;&lt;div&gt;Corpus&lt;br&gt;&lt;/div&gt;" style="shape=cylinder3;whiteSpace=wrap;html=1;boundedLbl=1;backgroundOutline=1;size=15;fillColor=#d5e8d4;strokeColor=#82b366;" parent="1" vertex="1">
          <mxGeometry x="190" y="110" width="60" height="80" as="geometry" />
        </mxCell>
        <mxCell id="DDUSek9ynVhU5SFkkY_l-10" style="edgeStyle=orthogonalEdgeStyle;rounded=0;orthogonalLoop=1;jettySize=auto;html=1;exitX=0.5;exitY=1;exitDx=0;exitDy=0;" parent="1" target="DDUSek9ynVhU5SFkkY_l-7" edge="1">
          <mxGeometry relative="1" as="geometry">
            <mxPoint x="410" y="180" as="sourcePoint" />
          </mxGeometry>
        </mxCell>
        <mxCell id="DDUSek9ynVhU5SFkkY_l-7" value="Build Dictionary" style="rounded=1;whiteSpace=wrap;html=1;fillColor=#d5e8d4;strokeColor=#82b366;" parent="1" vertex="1">
          <mxGeometry x="340" y="220" width="140" height="60" as="geometry" />
        </mxCell>
        <mxCell id="DDUSek9ynVhU5SFkkY_l-13" value="Encoded Text" style="verticalLabelPosition=middle;verticalAlign=middle;html=1;shape=mxgraph.basic.layered_rect;dx=10;outlineConnect=0;whiteSpace=wrap;fillColor=#d5e8d4;strokeColor=#82b366;labelPosition=center;align=center;" parent="1" vertex="1">
          <mxGeometry x="670" y="459" width="150" height="60" as="geometry" />
        </mxCell>
        <mxCell id="DDUSek9ynVhU5SFkkY_l-38" style="edgeStyle=orthogonalEdgeStyle;rounded=0;orthogonalLoop=1;jettySize=auto;html=1;exitX=0.5;exitY=1;exitDx=0;exitDy=0;exitPerimeter=0;" parent="1" source="DDUSek9ynVhU5SFkkY_l-27" target="DDUSek9ynVhU5SFkkY_l-36" edge="1">
          <mxGeometry relative="1" as="geometry" />
        </mxCell>
        <mxCell id="DDUSek9ynVhU5SFkkY_l-27" value="&lt;div&gt;Token-id&lt;/div&gt;&lt;div&gt;dictionary&lt;br&gt;&lt;/div&gt;" style="shape=cylinder3;whiteSpace=wrap;html=1;boundedLbl=1;backgroundOutline=1;size=15;fillColor=#d5e8d4;strokeColor=#82b366;" parent="1" vertex="1">
          <mxGeometry x="190" y="210" width="60" height="80" as="geometry" />
        </mxCell>
        <mxCell id="DDUSek9ynVhU5SFkkY_l-28" style="edgeStyle=orthogonalEdgeStyle;rounded=0;orthogonalLoop=1;jettySize=auto;html=1;exitX=0;exitY=0.5;exitDx=0;exitDy=0;entryX=1;entryY=0.5;entryDx=0;entryDy=0;entryPerimeter=0;" parent="1" source="DDUSek9ynVhU5SFkkY_l-7" target="DDUSek9ynVhU5SFkkY_l-27" edge="1">
          <mxGeometry relative="1" as="geometry">
            <Array as="points">
              <mxPoint x="290" y="250" />
              <mxPoint x="290" y="250" />
            </Array>
          </mxGeometry>
        </mxCell>
        <mxCell id="DDUSek9ynVhU5SFkkY_l-41" style="edgeStyle=orthogonalEdgeStyle;rounded=0;orthogonalLoop=1;jettySize=auto;html=1;exitX=1;exitY=0.5;exitDx=0;exitDy=0;exitPerimeter=0;" parent="1" source="DDUSek9ynVhU5SFkkY_l-29" edge="1">
          <mxGeometry relative="1" as="geometry">
            <mxPoint x="220" y="519" as="targetPoint" />
          </mxGeometry>
        </mxCell>
        <mxCell id="DDUSek9ynVhU5SFkkY_l-29" value="&lt;div&gt;Other&lt;/div&gt;&lt;div&gt;Text &lt;br&gt;&lt;/div&gt;&lt;div&gt;Corpus&lt;br&gt;&lt;/div&gt;" style="shape=cylinder3;whiteSpace=wrap;html=1;boundedLbl=1;backgroundOutline=1;size=15;fillColor=#dae8fc;strokeColor=#6c8ebf;" parent="1" vertex="1">
          <mxGeometry x="30" y="530" width="60" height="80" as="geometry" />
        </mxCell>
        <mxCell id="DDUSek9ynVhU5SFkkY_l-32" value="Step 1" style="text;strokeColor=none;fillColor=none;html=1;fontSize=14;fontStyle=1;verticalAlign=middle;align=center;" parent="1" vertex="1">
          <mxGeometry x="100" y="40" width="100" height="40" as="geometry" />
        </mxCell>
        <mxCell id="DDUSek9ynVhU5SFkkY_l-33" value="Step 2" style="text;strokeColor=none;fillColor=none;html=1;fontSize=14;fontStyle=1;verticalAlign=middle;align=center;" parent="1" vertex="1">
          <mxGeometry x="100" y="350" width="100" height="40" as="geometry" />
        </mxCell>
        <mxCell id="DDUSek9ynVhU5SFkkY_l-43" style="edgeStyle=orthogonalEdgeStyle;rounded=0;orthogonalLoop=1;jettySize=auto;html=1;exitX=1;exitY=0.5;exitDx=0;exitDy=0;entryX=0;entryY=0.5;entryDx=0;entryDy=0;" parent="1" target="DDUSek9ynVhU5SFkkY_l-36" edge="1">
          <mxGeometry relative="1" as="geometry">
            <mxPoint x="440" y="489" as="sourcePoint" />
          </mxGeometry>
        </mxCell>
        <mxCell id="DDUSek9ynVhU5SFkkY_l-36" value="Text Encoding" style="rounded=1;whiteSpace=wrap;html=1;fillColor=#d5e8d4;strokeColor=#82b366;" parent="1" vertex="1">
          <mxGeometry x="480" y="459" width="140" height="60" as="geometry" />
        </mxCell>
        <mxCell id="DDUSek9ynVhU5SFkkY_l-40" style="edgeStyle=orthogonalEdgeStyle;rounded=0;orthogonalLoop=1;jettySize=auto;html=1;exitX=1;exitY=0.5;exitDx=0;exitDy=0;exitPerimeter=0;entryX=0;entryY=0.5;entryDx=0;entryDy=0;" parent="1" source="DDUSek9ynVhU5SFkkY_l-39" target="h4ItEphQto2vHwUUPfga-4" edge="1">
          <mxGeometry relative="1" as="geometry">
            <mxPoint x="220" y="459" as="targetPoint" />
          </mxGeometry>
        </mxCell>
        <mxCell id="DDUSek9ynVhU5SFkkY_l-39" value="&lt;div&gt;Train&lt;/div&gt;&lt;div&gt;Text&lt;/div&gt;&lt;div&gt;Corpus&lt;br&gt;&lt;/div&gt;" style="shape=cylinder3;whiteSpace=wrap;html=1;boundedLbl=1;backgroundOutline=1;size=15;fillColor=#d5e8d4;strokeColor=#82b366;" parent="1" vertex="1">
          <mxGeometry x="30" y="410" width="60" height="80" as="geometry" />
        </mxCell>
        <mxCell id="DDUSek9ynVhU5SFkkY_l-44" style="edgeStyle=orthogonalEdgeStyle;rounded=0;orthogonalLoop=1;jettySize=auto;html=1;exitX=1;exitY=0.5;exitDx=0;exitDy=0;entryX=-0.04;entryY=0.5;entryDx=0;entryDy=0;entryPerimeter=0;" parent="1" source="DDUSek9ynVhU5SFkkY_l-36" target="DDUSek9ynVhU5SFkkY_l-13" edge="1">
          <mxGeometry relative="1" as="geometry" />
        </mxCell>
        <mxCell id="h4ItEphQto2vHwUUPfga-3" style="edgeStyle=orthogonalEdgeStyle;rounded=0;orthogonalLoop=1;jettySize=auto;html=1;exitX=0.5;exitY=1;exitDx=0;exitDy=0;" edge="1" parent="1" source="h4ItEphQto2vHwUUPfga-1" target="h4ItEphQto2vHwUUPfga-2">
          <mxGeometry relative="1" as="geometry" />
        </mxCell>
        <mxCell id="h4ItEphQto2vHwUUPfga-1" value="Normalization" style="rounded=1;whiteSpace=wrap;html=1;fillColor=#d5e8d4;strokeColor=#82b366;" vertex="1" parent="1">
          <mxGeometry x="350" y="20" width="120" height="60" as="geometry" />
        </mxCell>
        <mxCell id="h4ItEphQto2vHwUUPfga-2" value="Pre-tokenization" style="rounded=1;whiteSpace=wrap;html=1;fillColor=#d5e8d4;strokeColor=#82b366;" vertex="1" parent="1">
          <mxGeometry x="350" y="110" width="120" height="60" as="geometry" />
        </mxCell>
        <mxCell id="h4ItEphQto2vHwUUPfga-8" style="edgeStyle=orthogonalEdgeStyle;rounded=0;orthogonalLoop=1;jettySize=auto;html=1;exitX=1;exitY=0.5;exitDx=0;exitDy=0;" edge="1" parent="1" source="h4ItEphQto2vHwUUPfga-4" target="h4ItEphQto2vHwUUPfga-6">
          <mxGeometry relative="1" as="geometry" />
        </mxCell>
        <mxCell id="h4ItEphQto2vHwUUPfga-4" value="Normalization" style="rounded=1;whiteSpace=wrap;html=1;fillColor=#d5e8d4;strokeColor=#82b366;" vertex="1" parent="1">
          <mxGeometry x="170" y="459" width="120" height="60" as="geometry" />
        </mxCell>
        <mxCell id="h4ItEphQto2vHwUUPfga-6" value="Pre-tokenization" style="rounded=1;whiteSpace=wrap;html=1;fillColor=#d5e8d4;strokeColor=#82b366;" vertex="1" parent="1">
          <mxGeometry x="320" y="459" width="120" height="60" as="geometry" />
        </mxCell>
      </root>
    </mxGraphModel>
  </diagram>
</mxfile>
